<svg xmlns="http://www.w3.org/2000/svg" viewBox="0 0 916.54 227.02"><defs><style>.cls-1{fill:#9dbdc6;}.cls-1,.cls-3,.cls-5{fill-rule:evenodd;}.cls-2,.cls-3{fill:#537782;}.cls-4{fill:#272f32;}.cls-5{fill:#ef4334;}</style></defs><title>peoplepowerlogo_1</title><g id="Layer_2" data-name="Layer 2"><g id="Layer_1-2" data-name="Layer 1"><path class="cls-1" d="M427.24,90.94l-8.7-6.33a1.85,1.85,0,0,0-2.81.4L406,97.11c7.26,4.28,6.27,10.46,4.59,13.24-2.24,3.71-6.39,7-15.29,3.83,1.18,5.19,9.34,8.27,13.78,2.64l18.48-23.43a1.64,1.64,0,0,0-.35-2.45Zm15.14,14c.75-.93,1.73-1.58,2.66-.56,5.17,5.67,3.26,14.5-3.18,22.82l-7.92,9.87c-5.53,6.89-16.84-.83-11.29-7.7l19.74-24.43Zm-1.26-1.25-20.24,25.09c-6.07,7.53-18.35-.85-12.36-8.43L429,94.43a1.77,1.77,0,0,1,2.65-.28l9,6.59a2,2,0,0,1,.42,3ZM414.34,81.55a1.39,1.39,0,0,1,.3,2.09L404.46,96.3l-16-6,7-8.66c4.48-5.59,10.21-6.2,15.69-2.47Z"/><path class="cls-1" d="M449.64,113.11c0,2.53-1.7,8.62-6.32,14.69l-7.79,10.32c-6.69,8.86-18.4.12-17.14-4.22-7.81,1.57-13.71-.54-14.78-9.16l1.93,22.6c.24,1-1,1.26-1.35.3l-4.24-21.78c-.26-1.66-.94-2.51-2.74-3.47l-11.31-5.56a1.28,1.28,0,0,1-.82-1.91c2.37-3.78,4.65-5.07,9-3.45l4.2,1.52a8.87,8.87,0,0,0,9.66-2.43,7.43,7.43,0,0,0-3.54-12l-15.93-6A8.94,8.94,0,0,0,379,94.25L367,114.54c-1.6,2.64-1.32,4.64-.11,6.53l22.38,35.16L381.81,227h51.8l-3.54-69.23,17.75-33.42C450.3,119.7,450.29,115.52,449.64,113.11Z"/><path class="cls-2" d="M511.57,96.3l10.17-12.67a1.39,1.39,0,0,0-.3-2.09l-3.27-2.4L517.9,79,509.18,95.4Z"/><path class="cls-2" d="M516.22,116.82,534.7,93.39a1.64,1.64,0,0,0-.35-2.45l-8.7-6.33a1.85,1.85,0,0,0-2.81.4l-9.71,12.11c7.26,4.28,6.27,10.46,4.59,13.24-2.24,3.71-6.39,7-15.29,3.83C503.62,119.38,511.78,122.45,516.22,116.82Z"/><path class="cls-2" d="M547.81,100.73l-9-6.59a1.77,1.77,0,0,0-2.65.28l-20.48,25.92c-6,7.58,6.29,16,12.36,8.43l20.24-25.09A2,2,0,0,0,547.81,100.73Z"/><path class="cls-2" d="M552.15,104.39c-.93-1-1.91-.37-2.66.56l-19.73,24.43c-5.55,6.87,5.77,14.59,11.29,7.7L549,127.2C555.41,118.89,557.33,110.06,552.15,104.39Z"/><path class="cls-3" d="M501.17,111.47l4.2,1.52a8.87,8.87,0,0,0,9.66-2.43,7.43,7.43,0,0,0-3.54-12l-3.33-1.27-7.44,14C500.88,111.38,501,111.41,501.17,111.47Z"/><path class="cls-3" d="M556.75,113.11c0,2.53-1.7,8.62-6.32,14.69l-7.79,10.32c-6.69,8.86-18.4.12-17.14-4.22-7.81,1.57-13.71-.54-14.78-9.16l1.93,22.6c.24,1-1,1.26-1.35.3l-4.24-21.78c-.26-1.66-.94-2.51-2.74-3.47l-7.51-3.69-2,3.7L500.18,227h40.54l-3.54-69.23,17.75-33.42C557.41,119.7,557.4,115.52,556.75,113.11Z"/><path class="cls-4" d="M0,200.15V108H22.22c22.22,0,36.13,7.81,36.13,31.68,0,22.25-11.51,33.45-32.93,33.45H22.06v27Zm23.34-44.21c8.79,0,12.31-3.68,12.31-15.47C35.65,129,31.81,126,23.5,126H22.06v29.91Z"/><path class="cls-4" d="M65.22,200.15V108h47.63v18H87.12v19h19.34v17.68H87.12v19.45h25.74v18Z"/><path class="cls-4" d="M117.49,154c0-33.3,13.27-48,33.09-48s33.09,12.67,33.09,48.19c0,33.3-13.27,48-33.25,48C130.76,202.21,117.49,189.54,117.49,154Zm43.48.88c0-23.87-3.2-30.5-10.23-30.5-7.19,0-10.55,5.89-10.55,28.88,0,23.87,3.2,30.5,10.23,30.5C157.61,183.79,161,177.9,161,154.91Z"/><path class="cls-4" d="M192.14,200.15V108h22.22c22.22,0,36.13,7.81,36.13,31.68,0,22.25-11.51,33.45-32.93,33.45H214.2v27Zm23.34-44.21c8.79,0,12.31-3.68,12.31-15.47,0-11.49-3.84-14.44-12.15-14.44H214.2v29.91Z"/><path class="cls-4" d="M257.36,200.15V108h22.06v74.12h23.34v18Z"/><path class="cls-4" d="M309.31,200.15V108h47.63v18H331.2v19h19.34v17.68H331.2v19.45h25.74v18Z"/><path class="cls-4" d="M565.82,200.15V108H588c22.22,0,36.13,7.81,36.13,31.69,0,22.25-11.51,33.46-32.93,33.46h-3.36v27Zm23.34-44.22c8.79,0,12.31-3.68,12.31-15.48,0-11.5-3.84-14.44-12.15-14.44h-1.44v29.92Z"/><path class="cls-4" d="M628.8,154c0-33.31,13.27-48,33.09-48S695,118.65,695,154.17c0,33.31-13.27,48-33.25,48C642.07,202.22,628.8,189.54,628.8,154Zm43.48.88c0-23.88-3.2-30.51-10.23-30.51-7.19,0-10.55,5.9-10.55,28.89,0,23.88,3.2,30.51,10.23,30.51C668.92,183.79,672.28,177.9,672.28,154.91Z"/><path class="cls-4" d="M752.69,200.15l-9-63.38-9,63.38H711.45L696.1,108h22.38l5.44,60.72,8-60.72h23.66l8,60.72L769,108h22.38L776,200.15Z"/><path class="cls-4" d="M798.73,200.15V108h47.63v18H820.63v19H840v17.69H820.63v19.45h25.74v18Z"/><path class="cls-4" d="M893,200.15,881.53,169.5l-4.64.59v30.07H854.84V108h28.93c20.14,0,29.57,11.35,29.57,29.18,0,12.53-4.32,21.81-12.15,26.38l15.35,36.55ZM879.77,152.7c7.51-.29,10.87-4.42,10.87-14s-4-12.68-11.19-12.68H876.9v26.83Z"/><path class="cls-5" d="M490.56,21.37l-13.14-9.56a2.8,2.8,0,0,0-4.24.6l-14.67,18.3c11,6.46,9.47,15.81,6.93,20-3.39,5.61-9.66,10.6-23.1,5.79,1.78,7.85,14.11,12.49,20.82,4l27.92-35.41a2.48,2.48,0,0,0-.52-3.71Zm22.87,21.17c1.13-1.4,2.61-2.39,4-.84,7.82,8.56,4.92,21.91-4.81,34.48l-12,14.92c-8.35,10.41-25.45-1.26-17.07-11.64l29.82-36.92Zm-1.91-1.9L480.94,78.57c-9.17,11.37-27.73-1.29-18.68-12.74l31-39.17a2.67,2.67,0,0,1,4-.43l13.66,10a3,3,0,0,1,.64,4.47ZM471.06,7.18a2.1,2.1,0,0,1,.45,3.15L456.13,29.48l-24.24-9.1L442.4,7.29c6.78-8.44,15.43-9.37,23.71-3.73Z"/><path class="cls-5" d="M524.4,54.88c0,3.82-2.58,13-9.56,22.2l-11.77,15.6c-10.11,13.38-27.81.18-25.9-6.38-11.8,2.37-20.72-.81-22.34-13.84l2.92,34.16c.36,1.47-1.57,1.9-2,.45l-6.4-32.91c-.39-2.52-1.42-3.79-4.14-5.24l-17.1-8.41c-1.34-.51-1.94-1.66-1.24-2.88,3.58-5.71,7-7.65,13.59-5.22l6.35,2.29A13.41,13.41,0,0,0,461.37,51a11.42,11.42,0,0,0,1.82-2.94c2.54-6-.69-12.8-7.18-15.14l-24.08-9.14a13.51,13.51,0,0,0-14.24,2.6L399.48,57c-2.42,4-2,7-.17,9.87l33.81,53.14L421.9,227h78.28L494.84,122.4l26.82-50.5C525.41,64.84,525.38,58.52,524.4,54.88Z"/></g></g></svg>